<?xml version="1.0" encoding="UTF-8" standalone="no"?>
<svg
   xmlns:dc="http://purl.org/dc/elements/1.1/"
   xmlns:cc="http://creativecommons.org/ns#"
   xmlns:rdf="http://www.w3.org/1999/02/22-rdf-syntax-ns#"
   xmlns:svg="http://www.w3.org/2000/svg"
   xmlns="http://www.w3.org/2000/svg"
   viewBox="0 0 1056 816"
   height="816"
   width="1056"
   xml:space="preserve"
   id="svg2"
   version="1.1"><metadata
     id="metadata8"><rdf:RDF><cc:Work
         rdf:about=""><dc:format>image/svg+xml</dc:format><dc:type
           rdf:resource="http://purl.org/dc/dcmitype/StillImage" /></cc:Work></rdf:RDF></metadata><defs
     id="defs6"><clipPath
       id="clipPath18"
       clipPathUnits="userSpaceOnUse"><path
         style="clip-rule:evenodd"
         id="path16"
         d="m 51.36,512.26 h 621.7 v 14.28 H 51.36 Z" /></clipPath><clipPath
       id="clipPath30"
       clipPathUnits="userSpaceOnUse"><path
         style="clip-rule:evenodd"
         id="path28"
         d="m 51.36,512.26 h 621.7 v 14.28 H 51.36 Z" /></clipPath><clipPath
       id="clipPath42"
       clipPathUnits="userSpaceOnUse"><path
         style="clip-rule:evenodd"
         id="path40"
         d="m 51.36,497.02 h 621.7 V 511.3 H 51.36 Z" /></clipPath><clipPath
       id="clipPath54"
       clipPathUnits="userSpaceOnUse"><path
         style="clip-rule:evenodd"
         id="path52"
         d="m 51.36,497.02 h 621.7 V 511.3 H 51.36 Z" /></clipPath><clipPath
       id="clipPath66"
       clipPathUnits="userSpaceOnUse"><path
         style="clip-rule:evenodd"
         id="path64"
         d="m 51.36,481.78 h 621.7 v 14.28 H 51.36 Z" /></clipPath><clipPath
       id="clipPath78"
       clipPathUnits="userSpaceOnUse"><path
         style="clip-rule:evenodd"
         id="path76"
         d="m 51.36,481.78 h 621.7 v 14.28 H 51.36 Z" /></clipPath><clipPath
       id="clipPath90"
       clipPathUnits="userSpaceOnUse"><path
         style="clip-rule:evenodd"
         id="path88"
         d="m 51.36,466.54 h 621.7 v 14.28 H 51.36 Z" /></clipPath><clipPath
       id="clipPath102"
       clipPathUnits="userSpaceOnUse"><path
         style="clip-rule:evenodd"
         id="path100"
         d="m 51.36,466.54 h 621.7 v 14.28 H 51.36 Z" /></clipPath><clipPath
       id="clipPath114"
       clipPathUnits="userSpaceOnUse"><path
         style="clip-rule:evenodd"
         id="path112"
         d="m 51.36,451.3 h 621.7 v 14.28 H 51.36 Z" /></clipPath><clipPath
       id="clipPath126"
       clipPathUnits="userSpaceOnUse"><path
         style="clip-rule:evenodd"
         id="path124"
         d="m 51.36,451.3 h 621.7 v 14.28 H 51.36 Z" /></clipPath><clipPath
       id="clipPath138"
       clipPathUnits="userSpaceOnUse"><path
         style="clip-rule:evenodd"
         id="path136"
         d="m 51.36,436.06 h 621.7 v 14.28 H 51.36 Z" /></clipPath><clipPath
       id="clipPath150"
       clipPathUnits="userSpaceOnUse"><path
         style="clip-rule:evenodd"
         id="path148"
         d="m 51.36,436.06 h 621.7 v 14.28 H 51.36 Z" /></clipPath><clipPath
       id="clipPath162"
       clipPathUnits="userSpaceOnUse"><path
         style="clip-rule:evenodd"
         id="path160"
         d="m 51.36,420.79 h 621.7 v 14.304 H 51.36 Z" /></clipPath><clipPath
       id="clipPath174"
       clipPathUnits="userSpaceOnUse"><path
         style="clip-rule:evenodd"
         id="path172"
         d="m 51.36,420.79 h 621.7 v 14.304 H 51.36 Z" /></clipPath><clipPath
       id="clipPath186"
       clipPathUnits="userSpaceOnUse"><path
         style="clip-rule:evenodd"
         id="path184"
         d="m 51.36,405.55 h 621.7 v 14.28 H 51.36 Z" /></clipPath><clipPath
       id="clipPath198"
       clipPathUnits="userSpaceOnUse"><path
         style="clip-rule:evenodd"
         id="path196"
         d="m 51.36,405.55 h 621.7 v 14.28 H 51.36 Z" /></clipPath><clipPath
       id="clipPath210"
       clipPathUnits="userSpaceOnUse"><path
         style="clip-rule:evenodd"
         id="path208"
         d="m 51.36,390.31 h 621.7 v 14.28 H 51.36 Z" /></clipPath><clipPath
       id="clipPath222"
       clipPathUnits="userSpaceOnUse"><path
         style="clip-rule:evenodd"
         id="path220"
         d="m 51.36,390.31 h 621.7 v 14.28 H 51.36 Z" /></clipPath><clipPath
       id="clipPath234"
       clipPathUnits="userSpaceOnUse"><path
         style="clip-rule:evenodd"
         id="path232"
         d="m 51.36,375.07 h 621.7 v 14.28 H 51.36 Z" /></clipPath><clipPath
       id="clipPath246"
       clipPathUnits="userSpaceOnUse"><path
         style="clip-rule:evenodd"
         id="path244"
         d="m 51.36,375.07 h 621.7 v 14.28 H 51.36 Z" /></clipPath><clipPath
       id="clipPath258"
       clipPathUnits="userSpaceOnUse"><path
         style="clip-rule:evenodd"
         id="path256"
         d="m 51.36,359.83 h 621.7 v 14.28 H 51.36 Z" /></clipPath><clipPath
       id="clipPath270"
       clipPathUnits="userSpaceOnUse"><path
         style="clip-rule:evenodd"
         id="path268"
         d="m 51.36,359.83 h 621.7 v 14.28 H 51.36 Z" /></clipPath><clipPath
       id="clipPath282"
       clipPathUnits="userSpaceOnUse"><path
         style="clip-rule:evenodd"
         id="path280"
         d="m 51.36,344.59 h 621.7 v 14.28 H 51.36 Z" /></clipPath><clipPath
       id="clipPath294"
       clipPathUnits="userSpaceOnUse"><path
         style="clip-rule:evenodd"
         id="path292"
         d="m 51.36,344.59 h 621.7 v 14.28 H 51.36 Z" /></clipPath><clipPath
       id="clipPath306"
       clipPathUnits="userSpaceOnUse"><path
         style="clip-rule:evenodd"
         id="path304"
         d="m 51.36,329.35 h 621.7 v 14.28 H 51.36 Z" /></clipPath><clipPath
       id="clipPath318"
       clipPathUnits="userSpaceOnUse"><path
         style="clip-rule:evenodd"
         id="path316"
         d="m 51.36,329.35 h 621.7 v 14.28 H 51.36 Z" /></clipPath><clipPath
       id="clipPath330"
       clipPathUnits="userSpaceOnUse"><path
         style="clip-rule:evenodd"
         id="path328"
         d="m 51.36,314.11 h 621.7 v 14.28 H 51.36 Z" /></clipPath><clipPath
       id="clipPath342"
       clipPathUnits="userSpaceOnUse"><path
         style="clip-rule:evenodd"
         id="path340"
         d="m 51.36,314.11 h 621.7 v 14.28 H 51.36 Z" /></clipPath><clipPath
       id="clipPath354"
       clipPathUnits="userSpaceOnUse"><path
         style="clip-rule:evenodd"
         id="path352"
         d="m 51.36,298.87 h 621.7 v 14.28 H 51.36 Z" /></clipPath><clipPath
       id="clipPath366"
       clipPathUnits="userSpaceOnUse"><path
         style="clip-rule:evenodd"
         id="path364"
         d="m 51.36,298.87 h 621.7 v 14.28 H 51.36 Z" /></clipPath><clipPath
       id="clipPath378"
       clipPathUnits="userSpaceOnUse"><path
         style="clip-rule:evenodd"
         id="path376"
         d="m 51.36,283.61 h 621.7 v 14.304 H 51.36 Z" /></clipPath><clipPath
       id="clipPath390"
       clipPathUnits="userSpaceOnUse"><path
         style="clip-rule:evenodd"
         id="path388"
         d="m 51.36,283.61 h 621.7 v 14.304 H 51.36 Z" /></clipPath><clipPath
       id="clipPath402"
       clipPathUnits="userSpaceOnUse"><path
         style="clip-rule:evenodd"
         id="path400"
         d="m 51.36,268.37 h 621.7 v 14.28 H 51.36 Z" /></clipPath><clipPath
       id="clipPath414"
       clipPathUnits="userSpaceOnUse"><path
         style="clip-rule:evenodd"
         id="path412"
         d="m 51.36,268.37 h 621.7 v 14.28 H 51.36 Z" /></clipPath><clipPath
       id="clipPath426"
       clipPathUnits="userSpaceOnUse"><path
         style="clip-rule:evenodd"
         id="path424"
         d="m 51.36,253.13 h 621.7 v 14.28 H 51.36 Z" /></clipPath><clipPath
       id="clipPath438"
       clipPathUnits="userSpaceOnUse"><path
         style="clip-rule:evenodd"
         id="path436"
         d="m 51.36,253.13 h 621.7 v 14.28 H 51.36 Z" /></clipPath><clipPath
       id="clipPath450"
       clipPathUnits="userSpaceOnUse"><path
         style="clip-rule:evenodd"
         id="path448"
         d="m 51.36,237.89 h 621.7 v 14.28 H 51.36 Z" /></clipPath><clipPath
       id="clipPath462"
       clipPathUnits="userSpaceOnUse"><path
         style="clip-rule:evenodd"
         id="path460"
         d="M 50.4,237 H 672.96 V 558 H 50.4 Z" /></clipPath><clipPath
       id="clipPath478"
       clipPathUnits="userSpaceOnUse"><path
         style="clip-rule:evenodd"
         id="path476"
         d="M 308.4,345.36 H 607.08 V 474.48 H 308.4 Z" /></clipPath><clipPath
       id="clipPath488"
       clipPathUnits="userSpaceOnUse"><path
         style="clip-rule:evenodd"
         id="path486"
         d="m 238.2,292.08 h 387 v 219.48 h -387 z" /></clipPath><clipPath
       id="clipPath500"
       clipPathUnits="userSpaceOnUse"><path
         style="clip-rule:evenodd"
         id="path498"
         d="m 238.2,292.08 h 387 v 219.48 h -387 z" /></clipPath><clipPath
       id="clipPath512"
       clipPathUnits="userSpaceOnUse"><path
         style="clip-rule:evenodd"
         id="path510"
         d="m 238.2,292.08 h 387 v 219.48 h -387 z" /></clipPath><clipPath
       id="clipPath524"
       clipPathUnits="userSpaceOnUse"><path
         style="clip-rule:evenodd"
         id="path522"
         d="m 238.2,292.08 h 387 v 219.48 h -387 z" /></clipPath><clipPath
       id="clipPath536"
       clipPathUnits="userSpaceOnUse"><path
         style="clip-rule:evenodd"
         id="path534"
         d="m 238.2,292.08 h 387 v 219.48 h -387 z" /></clipPath><clipPath
       id="clipPath548"
       clipPathUnits="userSpaceOnUse"><path
         style="clip-rule:evenodd"
         id="path546"
         d="m 238.2,292.08 h 387 v 219.48 h -387 z" /></clipPath><clipPath
       id="clipPath560"
       clipPathUnits="userSpaceOnUse"><path
         style="clip-rule:evenodd"
         id="path558"
         d="m 238.2,292.08 h 387 v 219.48 h -387 z" /></clipPath><clipPath
       id="clipPath572"
       clipPathUnits="userSpaceOnUse"><path
         style="clip-rule:evenodd"
         id="path570"
         d="m 238.2,292.08 h 387 v 219.48 h -387 z" /></clipPath><clipPath
       id="clipPath584"
       clipPathUnits="userSpaceOnUse"><path
         style="clip-rule:evenodd"
         id="path582"
         d="m 238.2,292.08 h 387 v 219.48 h -387 z" /></clipPath><clipPath
       id="clipPath596"
       clipPathUnits="userSpaceOnUse"><path
         style="clip-rule:evenodd"
         id="path594"
         d="M 625.2,511.56 V 292.08 h -387 v 219.48 z" /></clipPath><clipPath
       id="clipPath606"
       clipPathUnits="userSpaceOnUse"><path
         style="clip-rule:evenodd"
         id="path604"
         d="M 625.2,511.56 V 292.08 h -387 v 219.48 z" /></clipPath><clipPath
       id="clipPath616"
       clipPathUnits="userSpaceOnUse"><path
         style="clip-rule:evenodd"
         id="path614"
         d="M 625.2,511.56 V 292.08 h -387 v 219.48 z" /></clipPath><clipPath
       id="clipPath626"
       clipPathUnits="userSpaceOnUse"><path
         style="clip-rule:evenodd"
         id="path624"
         d="M 625.2,511.56 V 292.08 h -387 v 219.48 z" /></clipPath><clipPath
       id="clipPath636"
       clipPathUnits="userSpaceOnUse"><path
         style="clip-rule:evenodd"
         id="path634"
         d="M 625.2,511.56 V 292.08 h -387 v 219.48 z" /></clipPath><clipPath
       id="clipPath646"
       clipPathUnits="userSpaceOnUse"><path
         style="clip-rule:evenodd"
         id="path644"
         d="M 625.2,511.56 V 292.08 h -387 v 219.48 z" /></clipPath><clipPath
       id="clipPath656"
       clipPathUnits="userSpaceOnUse"><path
         style="clip-rule:evenodd"
         id="path654"
         d="M 625.2,511.56 V 292.08 h -387 v 219.48 z" /></clipPath><clipPath
       id="clipPath666"
       clipPathUnits="userSpaceOnUse"><path
         style="clip-rule:evenodd"
         id="path664"
         d="M 625.2,511.56 V 292.08 h -387 v 219.48 z" /></clipPath><clipPath
       id="clipPath676"
       clipPathUnits="userSpaceOnUse"><path
         style="clip-rule:evenodd"
         id="path674"
         d="M 625.2,511.56 V 292.08 h -387 v 219.48 z" /></clipPath><clipPath
       id="clipPath686"
       clipPathUnits="userSpaceOnUse"><path
         style="clip-rule:evenodd"
         id="path684"
         d="M 625.2,511.56 V 292.08 h -387 v 219.48 z" /></clipPath><clipPath
       id="clipPath696"
       clipPathUnits="userSpaceOnUse"><path
         style="clip-rule:evenodd"
         id="path694"
         d="M 625.2,511.56 V 292.08 h -387 v 219.48 z" /></clipPath><clipPath
       id="clipPath706"
       clipPathUnits="userSpaceOnUse"><path
         style="clip-rule:evenodd"
         id="path704"
         d="M 625.2,511.56 V 292.08 h -387 v 219.48 z" /></clipPath><clipPath
       id="clipPath716"
       clipPathUnits="userSpaceOnUse"><path
         style="clip-rule:evenodd"
         id="path714"
         d="M 625.2,511.56 V 292.08 h -387 v 219.48 z" /></clipPath><clipPath
       id="clipPath726"
       clipPathUnits="userSpaceOnUse"><path
         style="clip-rule:evenodd"
         id="path724"
         d="M 625.2,511.56 V 292.08 h -387 v 219.48 z" /></clipPath><clipPath
       id="clipPath736"
       clipPathUnits="userSpaceOnUse"><path
         style="clip-rule:evenodd"
         id="path734"
         d="M 625.2,511.56 V 292.08 h -387 v 219.48 z" /></clipPath><clipPath
       id="clipPath746"
       clipPathUnits="userSpaceOnUse"><path
         style="clip-rule:evenodd"
         id="path744"
         d="M 625.2,511.56 V 292.08 h -387 v 219.48 z" /></clipPath><clipPath
       id="clipPath756"
       clipPathUnits="userSpaceOnUse"><path
         style="clip-rule:evenodd"
         id="path754"
         d="m 238.2,511.56 h 387 V 292.08 h -387 z" /></clipPath><clipPath
       id="clipPath766"
       clipPathUnits="userSpaceOnUse"><path
         style="clip-rule:evenodd"
         id="path764"
         d="m 238.2,292.08 h 387 v 219.48 h -387 z" /></clipPath><clipPath
       id="clipPath778"
       clipPathUnits="userSpaceOnUse"><path
         style="clip-rule:evenodd"
         id="path776"
         d="m 238.2,292.08 h 387 v 219.48 h -387 z" /></clipPath><clipPath
       id="clipPath790"
       clipPathUnits="userSpaceOnUse"><path
         style="clip-rule:evenodd"
         id="path788"
         d="m 238.2,292.08 h 387 v 219.48 h -387 z" /></clipPath></defs><g
     transform="matrix(1.3333333,0,0,-1.3333333,0,816)"
     id="g10"><g
       id="g12"><g
         clip-path="url(#clipPath18)"
         id="g14"><text
           id="text22"
           style="font-variant:normal;font-weight:bold;font-size:11.03999996px;font-family:Aptos-Narrow;-inkscape-font-specification:Aptos-Narrow-Bold;writing-mode:lr-tb;fill:#000000;fill-opacity:1;fill-rule:nonzero;stroke:none"
           transform="matrix(1,0,0,-1,104.42,515.5)"><tspan
             id="tspan20"
             y="0"
             x="0 5.7628798 11.61408 17.752319 23.26128 26.73888 32.490719 36.200161">nbActors</tspan></text>
</g></g><g
       id="g24"><g
         clip-path="url(#clipPath30)"
         id="g26"><text
           id="text34"
           style="font-variant:normal;font-weight:bold;font-size:11.03999996px;font-family:Aptos-Narrow;-inkscape-font-specification:Aptos-Narrow-Bold;writing-mode:lr-tb;fill:#000000;fill-opacity:1;fill-rule:nonzero;stroke:none"
           transform="matrix(1,0,0,-1,156.02,515.5)"><tspan
             id="tspan32"
             y="0"
             x="0 3.4776001 6.2486401 15.14688 20.73312 24.089279 29.156639 34.787041 40.296001">time[sec]</tspan></text>
</g></g><g
       id="g36"><g
         clip-path="url(#clipPath42)"
         id="g38"><text
           id="text46"
           style="font-variant:normal;font-weight:normal;font-size:11.03999996px;font-family:Aptos;-inkscape-font-specification:Aptos-Narrow;writing-mode:lr-tb;fill:#000000;fill-opacity:1;fill-rule:nonzero;stroke:none"
           transform="matrix(1,0,0,-1,146.54,500.26)"><tspan
             id="tspan44"
             y="0"
             x="0">1</tspan></text>
</g></g><g
       id="g48"><g
         clip-path="url(#clipPath54)"
         id="g50"><text
           id="text58"
           style="font-variant:normal;font-weight:normal;font-size:11.03999996px;font-family:Aptos;-inkscape-font-specification:Aptos-Narrow;writing-mode:lr-tb;fill:#000000;fill-opacity:1;fill-rule:nonzero;stroke:none"
           transform="matrix(1,0,0,-1,169.46,500.26)"><tspan
             id="tspan56"
             y="0"
             x="0 5.6304002 11.2608 16.891199 19.7616 25.40304 31.03344">149,579</tspan></text>
</g></g><g
       id="g60"><g
         clip-path="url(#clipPath66)"
         id="g62"><text
           id="text70"
           style="font-variant:normal;font-weight:normal;font-size:11.03999996px;font-family:Aptos;-inkscape-font-specification:Aptos-Narrow;writing-mode:lr-tb;fill:#000000;fill-opacity:1;fill-rule:nonzero;stroke:none"
           transform="matrix(1,0,0,-1,146.54,485.02)"><tspan
             id="tspan68"
             y="0"
             x="0">2</tspan></text>
</g></g><g
       id="g72"><g
         clip-path="url(#clipPath78)"
         id="g74"><text
           id="text82"
           style="font-variant:normal;font-weight:normal;font-size:11.03999996px;font-family:Aptos;-inkscape-font-specification:Aptos-Narrow;writing-mode:lr-tb;fill:#000000;fill-opacity:1;fill-rule:nonzero;stroke:none"
           transform="matrix(1,0,0,-1,175.1,485.02)"><tspan
             id="tspan80"
             y="0"
             x="0 5.6304002 11.2608 14.1312 19.77264 25.40304">91,837</tspan></text>
</g></g><g
       id="g84"><g
         clip-path="url(#clipPath90)"
         id="g86"><text
           id="text94"
           style="font-variant:normal;font-weight:normal;font-size:11.03999996px;font-family:Aptos;-inkscape-font-specification:Aptos-Narrow;writing-mode:lr-tb;fill:#000000;fill-opacity:1;fill-rule:nonzero;stroke:none"
           transform="matrix(1,0,0,-1,146.54,469.78)"><tspan
             id="tspan92"
             y="0"
             x="0">4</tspan></text>
</g></g><g
       id="g96"><g
         clip-path="url(#clipPath102)"
         id="g98"><text
           id="text106"
           style="font-variant:normal;font-weight:normal;font-size:11.03999996px;font-family:Aptos;-inkscape-font-specification:Aptos-Narrow;writing-mode:lr-tb;fill:#000000;fill-opacity:1;fill-rule:nonzero;stroke:none"
           transform="matrix(1,0,0,-1,175.1,469.78)"><tspan
             id="tspan104"
             y="0"
             x="0 5.6304002 11.2608 14.1312 19.77264 25.40304">48,497</tspan></text>
</g></g><g
       id="g108"><g
         clip-path="url(#clipPath114)"
         id="g110"><text
           id="text118"
           style="font-variant:normal;font-weight:normal;font-size:11.03999996px;font-family:Aptos;-inkscape-font-specification:Aptos-Narrow;writing-mode:lr-tb;fill:#000000;fill-opacity:1;fill-rule:nonzero;stroke:none"
           transform="matrix(1,0,0,-1,146.54,454.54)"><tspan
             id="tspan116"
             y="0"
             x="0">6</tspan></text>
</g></g><g
       id="g120"><g
         clip-path="url(#clipPath126)"
         id="g122"><text
           id="text130"
           style="font-variant:normal;font-weight:normal;font-size:11.03999996px;font-family:Aptos;-inkscape-font-specification:Aptos-Narrow;writing-mode:lr-tb;fill:#000000;fill-opacity:1;fill-rule:nonzero;stroke:none"
           transform="matrix(1,0,0,-1,175.1,454.54)"><tspan
             id="tspan128"
             y="0"
             x="0 5.6304002 11.2608 14.1312 19.77264 25.40304">41,180</tspan></text>
</g></g><g
       id="g132"><g
         clip-path="url(#clipPath138)"
         id="g134"><text
           id="text142"
           style="font-variant:normal;font-weight:normal;font-size:11.03999996px;font-family:Aptos;-inkscape-font-specification:Aptos-Narrow;writing-mode:lr-tb;fill:#000000;fill-opacity:1;fill-rule:nonzero;stroke:none"
           transform="matrix(1,0,0,-1,146.54,439.3)"><tspan
             id="tspan140"
             y="0"
             x="0">8</tspan></text>
</g></g><g
       id="g144"><g
         clip-path="url(#clipPath150)"
         id="g146"><text
           id="text154"
           style="font-variant:normal;font-weight:normal;font-size:11.03999996px;font-family:Aptos;-inkscape-font-specification:Aptos-Narrow;writing-mode:lr-tb;fill:#000000;fill-opacity:1;fill-rule:nonzero;stroke:none"
           transform="matrix(1,0,0,-1,175.1,439.3)"><tspan
             id="tspan152"
             y="0"
             x="0 5.6304002 11.2608 14.1312 19.77264 25.40304">35,296</tspan></text>
</g></g><g
       id="g156"><g
         clip-path="url(#clipPath162)"
         id="g158"><text
           id="text166"
           style="font-variant:normal;font-weight:normal;font-size:11.03999996px;font-family:Aptos;-inkscape-font-specification:Aptos-Narrow;writing-mode:lr-tb;fill:#000000;fill-opacity:1;fill-rule:nonzero;stroke:none"
           transform="matrix(1,0,0,-1,140.9,424.06)"><tspan
             id="tspan164"
             y="0"
             x="0 5.6399798">10</tspan></text>
</g></g><g
       id="g168"><g
         clip-path="url(#clipPath174)"
         id="g170"><text
           id="text178"
           style="font-variant:normal;font-weight:normal;font-size:11.03999996px;font-family:Aptos;-inkscape-font-specification:Aptos-Narrow;writing-mode:lr-tb;fill:#000000;fill-opacity:1;fill-rule:nonzero;stroke:none"
           transform="matrix(1,0,0,-1,175.1,424.06)"><tspan
             id="tspan176"
             y="0"
             x="0 5.6304002 11.2608 14.1312 19.77264 25.40304">28,914</tspan></text>
</g></g><g
       id="g180"><g
         clip-path="url(#clipPath186)"
         id="g182"><text
           id="text190"
           style="font-variant:normal;font-weight:normal;font-size:11.03999996px;font-family:Aptos;-inkscape-font-specification:Aptos-Narrow;writing-mode:lr-tb;fill:#000000;fill-opacity:1;fill-rule:nonzero;stroke:none"
           transform="matrix(1,0,0,-1,140.9,408.79)"><tspan
             id="tspan188"
             y="0"
             x="0 5.6399798">12</tspan></text>
</g></g><g
       id="g192"><g
         clip-path="url(#clipPath198)"
         id="g194"><text
           id="text202"
           style="font-variant:normal;font-weight:normal;font-size:11.03999996px;font-family:Aptos;-inkscape-font-specification:Aptos-Narrow;writing-mode:lr-tb;fill:#000000;fill-opacity:1;fill-rule:nonzero;stroke:none"
           transform="matrix(1,0,0,-1,175.1,408.79)"><tspan
             id="tspan200"
             y="0"
             x="0 5.6304002 11.2608 14.1312 19.77264 25.40304">27,339</tspan></text>
</g></g><g
       id="g204"><g
         clip-path="url(#clipPath210)"
         id="g206"><text
           id="text214"
           style="font-variant:normal;font-weight:normal;font-size:11.03999996px;font-family:Aptos;-inkscape-font-specification:Aptos-Narrow;writing-mode:lr-tb;fill:#000000;fill-opacity:1;fill-rule:nonzero;stroke:none"
           transform="matrix(1,0,0,-1,140.9,393.55)"><tspan
             id="tspan212"
             y="0"
             x="0 5.6399798">14</tspan></text>
</g></g><g
       id="g216"><g
         clip-path="url(#clipPath222)"
         id="g218"><text
           id="text226"
           style="font-variant:normal;font-weight:normal;font-size:11.03999996px;font-family:Aptos;-inkscape-font-specification:Aptos-Narrow;writing-mode:lr-tb;fill:#000000;fill-opacity:1;fill-rule:nonzero;stroke:none"
           transform="matrix(1,0,0,-1,175.1,393.55)"><tspan
             id="tspan224"
             y="0"
             x="0 5.6304002 11.2608 14.1312 19.77264 25.40304">27,240</tspan></text>
</g></g><g
       id="g228"><g
         clip-path="url(#clipPath234)"
         id="g230"><text
           id="text238"
           style="font-variant:normal;font-weight:normal;font-size:11.03999996px;font-family:Aptos;-inkscape-font-specification:Aptos-Narrow;writing-mode:lr-tb;fill:#000000;fill-opacity:1;fill-rule:nonzero;stroke:none"
           transform="matrix(1,0,0,-1,140.9,378.31)"><tspan
             id="tspan236"
             y="0"
             x="0 5.6399798">16</tspan></text>
</g></g><g
       id="g240"><g
         clip-path="url(#clipPath246)"
         id="g242"><text
           id="text250"
           style="font-variant:normal;font-weight:normal;font-size:11.03999996px;font-family:Aptos;-inkscape-font-specification:Aptos-Narrow;writing-mode:lr-tb;fill:#000000;fill-opacity:1;fill-rule:nonzero;stroke:none"
           transform="matrix(1,0,0,-1,175.1,378.31)"><tspan
             id="tspan248"
             y="0"
             x="0 5.6304002 11.2608 14.1312 19.77264 25.40304">28,004</tspan></text>
</g></g><g
       id="g252"><g
         clip-path="url(#clipPath258)"
         id="g254"><text
           id="text262"
           style="font-variant:normal;font-weight:normal;font-size:11.03999996px;font-family:Aptos;-inkscape-font-specification:Aptos-Narrow;writing-mode:lr-tb;fill:#000000;fill-opacity:1;fill-rule:nonzero;stroke:none"
           transform="matrix(1,0,0,-1,140.9,363.07)"><tspan
             id="tspan260"
             y="0"
             x="0 5.6399798">24</tspan></text>
</g></g><g
       id="g264"><g
         clip-path="url(#clipPath270)"
         id="g266"><text
           id="text274"
           style="font-variant:normal;font-weight:normal;font-size:11.03999996px;font-family:Aptos;-inkscape-font-specification:Aptos-Narrow;writing-mode:lr-tb;fill:#000000;fill-opacity:1;fill-rule:nonzero;stroke:none"
           transform="matrix(1,0,0,-1,175.1,363.07)"><tspan
             id="tspan272"
             y="0"
             x="0 5.6304002 11.2608 14.1312 19.77264 25.40304">28,901</tspan></text>
</g></g><g
       id="g276"><g
         clip-path="url(#clipPath282)"
         id="g278"><text
           id="text286"
           style="font-variant:normal;font-weight:normal;font-size:11.03999996px;font-family:Aptos;-inkscape-font-specification:Aptos-Narrow;writing-mode:lr-tb;fill:#000000;fill-opacity:1;fill-rule:nonzero;stroke:none"
           transform="matrix(1,0,0,-1,140.9,347.83)"><tspan
             id="tspan284"
             y="0"
             x="0 5.6399798">32</tspan></text>
</g></g><g
       id="g288"><g
         clip-path="url(#clipPath294)"
         id="g290"><text
           id="text298"
           style="font-variant:normal;font-weight:normal;font-size:11.03999996px;font-family:Aptos;-inkscape-font-specification:Aptos-Narrow;writing-mode:lr-tb;fill:#000000;fill-opacity:1;fill-rule:nonzero;stroke:none"
           transform="matrix(1,0,0,-1,175.1,347.83)"><tspan
             id="tspan296"
             y="0"
             x="0 5.6304002 11.2608 14.1312 19.77264 25.40304">28,212</tspan></text>
</g></g><g
       id="g300"><g
         clip-path="url(#clipPath306)"
         id="g302"><text
           id="text310"
           style="font-variant:normal;font-weight:normal;font-size:11.03999996px;font-family:Aptos;-inkscape-font-specification:Aptos-Narrow;writing-mode:lr-tb;fill:#000000;fill-opacity:1;fill-rule:nonzero;stroke:none"
           transform="matrix(1,0,0,-1,140.9,332.59)"><tspan
             id="tspan308"
             y="0"
             x="0 5.6399798">48</tspan></text>
</g></g><g
       id="g312"><g
         clip-path="url(#clipPath318)"
         id="g314"><text
           id="text322"
           style="font-variant:normal;font-weight:normal;font-size:11.03999996px;font-family:Aptos;-inkscape-font-specification:Aptos-Narrow;writing-mode:lr-tb;fill:#000000;fill-opacity:1;fill-rule:nonzero;stroke:none"
           transform="matrix(1,0,0,-1,175.1,332.59)"><tspan
             id="tspan320"
             y="0"
             x="0 5.6304002 11.2608 14.1312 19.77264 25.40304">26,789</tspan></text>
</g></g><g
       id="g324"><g
         clip-path="url(#clipPath330)"
         id="g326"><text
           id="text334"
           style="font-variant:normal;font-weight:normal;font-size:11.03999996px;font-family:Aptos;-inkscape-font-specification:Aptos-Narrow;writing-mode:lr-tb;fill:#000000;fill-opacity:1;fill-rule:nonzero;stroke:none"
           transform="matrix(1,0,0,-1,140.9,317.35)"><tspan
             id="tspan332"
             y="0"
             x="0 5.6399798">64</tspan></text>
</g></g><g
       id="g336"><g
         clip-path="url(#clipPath342)"
         id="g338"><text
           id="text346"
           style="font-variant:normal;font-weight:normal;font-size:11.03999996px;font-family:Aptos;-inkscape-font-specification:Aptos-Narrow;writing-mode:lr-tb;fill:#000000;fill-opacity:1;fill-rule:nonzero;stroke:none"
           transform="matrix(1,0,0,-1,175.1,317.35)"><tspan
             id="tspan344"
             y="0"
             x="0 5.6304002 11.2608 14.1312 19.77264 25.40304">28,376</tspan></text>
</g></g><g
       id="g348"><g
         clip-path="url(#clipPath354)"
         id="g350"><text
           id="text358"
           style="font-variant:normal;font-weight:normal;font-size:11.03999996px;font-family:Aptos;-inkscape-font-specification:Aptos-Narrow;writing-mode:lr-tb;fill:#000000;fill-opacity:1;fill-rule:nonzero;stroke:none"
           transform="matrix(1,0,0,-1,135.26,302.11)"><tspan
             id="tspan356"
             y="0"
             x="0 5.6399798 11.27996">128</tspan></text>
</g></g><g
       id="g360"><g
         clip-path="url(#clipPath366)"
         id="g362"><text
           id="text370"
           style="font-variant:normal;font-weight:normal;font-size:11.03999996px;font-family:Aptos;-inkscape-font-specification:Aptos-Narrow;writing-mode:lr-tb;fill:#000000;fill-opacity:1;fill-rule:nonzero;stroke:none"
           transform="matrix(1,0,0,-1,175.1,302.11)"><tspan
             id="tspan368"
             y="0"
             x="0 5.6304002 11.2608 14.1312 19.77264 25.40304">26,849</tspan></text>
</g></g><g
       id="g372"><g
         clip-path="url(#clipPath378)"
         id="g374"><text
           id="text382"
           style="font-variant:normal;font-weight:normal;font-size:11.03999996px;font-family:Aptos;-inkscape-font-specification:Aptos-Narrow;writing-mode:lr-tb;fill:#000000;fill-opacity:1;fill-rule:nonzero;stroke:none"
           transform="matrix(1,0,0,-1,135.26,286.85)"><tspan
             id="tspan380"
             y="0"
             x="0 5.6399798 11.27996">256</tspan></text>
</g></g><g
       id="g384"><g
         clip-path="url(#clipPath390)"
         id="g386"><text
           id="text394"
           style="font-variant:normal;font-weight:normal;font-size:11.03999996px;font-family:Aptos;-inkscape-font-specification:Aptos-Narrow;writing-mode:lr-tb;fill:#000000;fill-opacity:1;fill-rule:nonzero;stroke:none"
           transform="matrix(1,0,0,-1,175.1,286.85)"><tspan
             id="tspan392"
             y="0"
             x="0 5.6304002 11.2608 14.1312 19.77264 25.40304">32,602</tspan></text>
</g></g><g
       id="g396"><g
         clip-path="url(#clipPath402)"
         id="g398"><text
           id="text406"
           style="font-variant:normal;font-weight:normal;font-size:11.03999996px;font-family:Aptos;-inkscape-font-specification:Aptos-Narrow;writing-mode:lr-tb;fill:#000000;fill-opacity:1;fill-rule:nonzero;stroke:none"
           transform="matrix(1,0,0,-1,135.26,271.61)"><tspan
             id="tspan404"
             y="0"
             x="0 5.6399798 11.27996">512</tspan></text>
</g></g><g
       id="g408"><g
         clip-path="url(#clipPath414)"
         id="g410"><text
           id="text418"
           style="font-variant:normal;font-weight:normal;font-size:11.03999996px;font-family:Aptos;-inkscape-font-specification:Aptos-Narrow;writing-mode:lr-tb;fill:#000000;fill-opacity:1;fill-rule:nonzero;stroke:none"
           transform="matrix(1,0,0,-1,175.1,271.61)"><tspan
             id="tspan416"
             y="0"
             x="0 5.6304002 11.2608 14.1312 19.77264 25.40304">40,733</tspan></text>
</g></g><g
       id="g420"><g
         clip-path="url(#clipPath426)"
         id="g422"><text
           id="text430"
           style="font-variant:normal;font-weight:normal;font-size:11.03999996px;font-family:Aptos;-inkscape-font-specification:Aptos-Narrow;writing-mode:lr-tb;fill:#000000;fill-opacity:1;fill-rule:nonzero;stroke:none"
           transform="matrix(1,0,0,-1,129.62,256.37)"><tspan
             id="tspan428"
             y="0"
             x="0 5.6399798 11.27996 16.919941">1024</tspan></text>
</g></g><g
       id="g432"><g
         clip-path="url(#clipPath438)"
         id="g434"><text
           id="text442"
           style="font-variant:normal;font-weight:normal;font-size:11.03999996px;font-family:Aptos;-inkscape-font-specification:Aptos-Narrow;writing-mode:lr-tb;fill:#000000;fill-opacity:1;fill-rule:nonzero;stroke:none"
           transform="matrix(1,0,0,-1,175.1,256.37)"><tspan
             id="tspan440"
             y="0"
             x="0 5.6304002 11.2608 14.1312 19.77264 25.40304">59,214</tspan></text>
</g></g><g
       id="g444"><g
         clip-path="url(#clipPath450)"
         id="g446"><text
           id="text454"
           style="font-variant:normal;font-weight:normal;font-size:11.03999996px;font-family:Aptos;-inkscape-font-specification:Aptos-Narrow;writing-mode:lr-tb;fill:#000000;fill-opacity:1;fill-rule:nonzero;stroke:none"
           transform="matrix(1,0,0,-1,104.42,241.13)"><tspan
             id="tspan452"
             y="0"
             x="0 5.6399798 7.8023601 13.44234 19.082319 24.7223 26.88468 32.524658 38.164639">5'000'000</tspan></text>
</g></g><g
       id="g456"><g
         clip-path="url(#clipPath462)"
         id="g458"><path
           id="path464"
           style="fill:none;stroke:#000000;stroke-width:0.14;stroke-linecap:butt;stroke-linejoin:miter;stroke-miterlimit:10;stroke-dasharray:none;stroke-opacity:0"
           d="m 238.2,292.08 h 387 v 219.48 h -387 z" /></g></g><path
       id="path466"
       style="fill:#ffffff;fill-opacity:1;fill-rule:evenodd;stroke:none"
       d="m 238.2,292.08 h 387 v 219.48 h -387 z" /><path
       id="path468"
       style="fill:none;stroke:#d9d9d9;stroke-width:0.75;stroke-linecap:butt;stroke-linejoin:round;stroke-miterlimit:10;stroke-dasharray:none;stroke-opacity:1"
       d="M 308.47,362.16 H 606.43 M 308.47,378.24 H 606.43 M 308.47,394.2 H 606.43 M 308.47,410.28 H 606.43 M 308.47,426.36 H 606.43 M 308.47,442.32 H 606.43 M 308.47,458.4 h 297.96 m -297.96,16.07 h 297.96" /><path
       id="path470"
       style="fill:none;stroke:#d9d9d9;stroke-width:0.75;stroke-linecap:butt;stroke-linejoin:round;stroke-miterlimit:10;stroke-dasharray:none;stroke-opacity:1"
       d="M 308.47,346.08 H 606.43" /><g
       id="g472"><g
         clip-path="url(#clipPath478)"
         id="g474"><path
           id="path480"
           style="fill:none;stroke:#145f82;stroke-width:2.25;stroke-linecap:round;stroke-linejoin:round;stroke-miterlimit:10;stroke-dasharray:none;stroke-opacity:1"
           d="m 308.47,466.11 18.65,-46.35 18.6,-34.8 18.6,-5.88 18.6,-4.68 18.72,-5.16 18.6,-1.2 18.6,-0.12 18.6,0.6 18.6,0.72 18.6,-0.48 18.72,-1.18 18.6,1.3 18.6,-1.2 18.6,4.56 18.6,6.48 18.67,14.88" /></g></g><g
       id="g482"><g
         clip-path="url(#clipPath488)"
         id="g484"><text
           id="text492"
           style="font-variant:normal;font-weight:normal;font-size:9px;font-family:Aptos;-inkscape-font-specification:Aptos-Narrow;writing-mode:lr-tb;fill:#595959;fill-opacity:1;fill-rule:nonzero;stroke:none"
           transform="matrix(1,0,0,-1,279.62,343.63)"><tspan
             id="tspan490"
             y="0"
             x="0 2.3940001 6.9569998 11.52 16.083">.0000</tspan></text>
</g></g><g
       id="g494"><g
         clip-path="url(#clipPath500)"
         id="g496"><text
           id="text504"
           style="font-variant:normal;font-weight:normal;font-size:9px;font-family:Aptos;-inkscape-font-specification:Aptos-Narrow;writing-mode:lr-tb;fill:#595959;fill-opacity:1;fill-rule:nonzero;stroke:none"
           transform="matrix(1,0,0,-1,270.5,359.66)"><tspan
             id="tspan502"
             y="0"
             x="0 4.5630002 9.1260004 11.511 16.073999 20.636999 25.200001">20.0000</tspan></text>
</g></g><g
       id="g506"><g
         clip-path="url(#clipPath512)"
         id="g508"><text
           id="text516"
           style="font-variant:normal;font-weight:normal;font-size:9px;font-family:Aptos;-inkscape-font-specification:Aptos-Narrow;writing-mode:lr-tb;fill:#595959;fill-opacity:1;fill-rule:nonzero;stroke:none"
           transform="matrix(1,0,0,-1,270.5,375.72)"><tspan
             id="tspan514"
             y="0"
             x="0 4.5630002 9.1260004 11.511 16.073999 20.636999 25.200001">40.0000</tspan></text>
</g></g><g
       id="g518"><g
         clip-path="url(#clipPath524)"
         id="g520"><text
           id="text528"
           style="font-variant:normal;font-weight:normal;font-size:9px;font-family:Aptos;-inkscape-font-specification:Aptos-Narrow;writing-mode:lr-tb;fill:#595959;fill-opacity:1;fill-rule:nonzero;stroke:none"
           transform="matrix(1,0,0,-1,270.5,391.78)"><tspan
             id="tspan526"
             y="0"
             x="0 4.5630002 9.1260004 11.511 16.073999 20.636999 25.200001">60.0000</tspan></text>
</g></g><g
       id="g530"><g
         clip-path="url(#clipPath536)"
         id="g532"><text
           id="text540"
           style="font-variant:normal;font-weight:normal;font-size:9px;font-family:Aptos;-inkscape-font-specification:Aptos-Narrow;writing-mode:lr-tb;fill:#595959;fill-opacity:1;fill-rule:nonzero;stroke:none"
           transform="matrix(1,0,0,-1,270.5,407.83)"><tspan
             id="tspan538"
             y="0"
             x="0 4.5630002 9.1260004 11.511 16.073999 20.636999 25.200001">80.0000</tspan></text>
</g></g><g
       id="g542"><g
         clip-path="url(#clipPath548)"
         id="g544"><text
           id="text552"
           style="font-variant:normal;font-weight:normal;font-size:9px;font-family:Aptos;-inkscape-font-specification:Aptos-Narrow;writing-mode:lr-tb;fill:#595959;fill-opacity:1;fill-rule:nonzero;stroke:none"
           transform="matrix(1,0,0,-1,265.94,423.89)"><tspan
             id="tspan550"
             y="0"
             x="0 4.5630002 9.1260004 13.689 16.073999 20.636999 25.200001 29.763">100.0000</tspan></text>
</g></g><g
       id="g554"><g
         clip-path="url(#clipPath560)"
         id="g556"><text
           id="text564"
           style="font-variant:normal;font-weight:normal;font-size:9px;font-family:Aptos;-inkscape-font-specification:Aptos-Narrow;writing-mode:lr-tb;fill:#595959;fill-opacity:1;fill-rule:nonzero;stroke:none"
           transform="matrix(1,0,0,-1,265.94,439.92)"><tspan
             id="tspan562"
             y="0"
             x="0 4.5630002 9.1260004 13.689 16.073999 20.636999 25.200001 29.763">120.0000</tspan></text>
</g></g><g
       id="g566"><g
         clip-path="url(#clipPath572)"
         id="g568"><text
           id="text576"
           style="font-variant:normal;font-weight:normal;font-size:9px;font-family:Aptos;-inkscape-font-specification:Aptos-Narrow;writing-mode:lr-tb;fill:#595959;fill-opacity:1;fill-rule:nonzero;stroke:none"
           transform="matrix(1,0,0,-1,265.94,455.98)"><tspan
             id="tspan574"
             y="0"
             x="0 4.5630002 9.1260004 13.689 16.073999 20.636999 25.200001 29.763">140.0000</tspan></text>
</g></g><g
       id="g578"><g
         clip-path="url(#clipPath584)"
         id="g580"><text
           id="text588"
           style="font-variant:normal;font-weight:normal;font-size:9px;font-family:Aptos;-inkscape-font-specification:Aptos-Narrow;writing-mode:lr-tb;fill:#595959;fill-opacity:1;fill-rule:nonzero;stroke:none"
           transform="matrix(1,0,0,-1,265.94,472.03)"><tspan
             id="tspan586"
             y="0"
             x="0 4.5630002 9.1260004 13.689 16.073999 20.636999 25.200001 29.763">160.0000</tspan></text>
</g></g><g
       id="g590"><g
         clip-path="url(#clipPath596)"
         id="g592"><path
           id="path598"
           style="fill:#595959;fill-opacity:1;fill-rule:nonzero;stroke:none"
           d="m 308.88,332.86 -3.43,3.43 c 0.02,-0.13 0.02,-0.28 -0.01,-0.45 -0.02,-0.17 -0.08,-0.35 -0.15,-0.54 -0.08,-0.19 -0.19,-0.38 -0.33,-0.58 l -0.47,0.47 c 0.13,0.2 0.23,0.4 0.3,0.62 0.06,0.22 0.1,0.44 0.11,0.64 0.01,0.21 0,0.39 -0.03,0.54 l 0.47,0.47 4.07,-4.07 z m -0.86,-0.86 -0.44,0.45 2.17,2.17 0.45,-0.44 z" /></g></g><g
       id="g600"><g
         clip-path="url(#clipPath606)"
         id="g602"><path
           id="path608"
           style="fill:#595959;fill-opacity:1;fill-rule:nonzero;stroke:none"
           d="m 326.15,331.51 -0.4,0.4 0.11,2.7 c 0.03,0.5 0,0.9 -0.08,1.2 -0.08,0.3 -0.22,0.55 -0.43,0.76 -0.21,0.21 -0.44,0.32 -0.69,0.35 -0.25,0.02 -0.5,-0.09 -0.76,-0.35 -0.29,-0.29 -0.42,-0.57 -0.39,-0.84 0.02,-0.28 0.15,-0.53 0.38,-0.76 l -0.5,-0.51 c -0.25,0.25 -0.43,0.52 -0.52,0.8 -0.09,0.29 -0.09,0.58 0.01,0.88 0.09,0.3 0.28,0.59 0.57,0.88 0.27,0.27 0.54,0.45 0.83,0.54 0.28,0.09 0.56,0.09 0.82,0.02 0.27,-0.08 0.53,-0.24 0.76,-0.47 0.21,-0.21 0.36,-0.45 0.46,-0.7 0.09,-0.26 0.15,-0.53 0.17,-0.82 0.01,-0.29 0.01,-0.59 0,-0.91 l -0.1,-2.04 2.09,2.09 0.44,-0.45 z" /></g></g><g
       id="g610"><g
         clip-path="url(#clipPath616)"
         id="g612"><path
           id="path618"
           style="fill:#595959;fill-opacity:1;fill-rule:nonzero;stroke:none"
           d="m 346.6,333.33 -0.83,0.82 -1.93,-1.93 -0.45,0.46 -0.88,4.72 0.51,0.51 2.81,-2.8 0.56,0.55 0.44,-0.44 -0.55,-0.56 0.82,-0.83 z m -2.71,-0.16 1.44,1.44 -2.1,2.1 z" /></g></g><g
       id="g620"><g
         clip-path="url(#clipPath626)"
         id="g622"><path
           id="path628"
           style="fill:#595959;fill-opacity:1;fill-rule:nonzero;stroke:none"
           d="m 364.92,332.92 c -0.28,-0.28 -0.6,-0.46 -0.97,-0.55 -0.36,-0.09 -0.75,-0.04 -1.18,0.13 -0.44,0.18 -0.9,0.51 -1.39,1 -0.48,0.48 -0.81,0.94 -1,1.37 -0.19,0.43 -0.24,0.84 -0.17,1.21 0.07,0.38 0.25,0.71 0.55,1.01 0.32,0.32 0.68,0.51 1.07,0.57 0.4,0.05 0.8,-0.06 1.21,-0.35 l -0.51,-0.51 c -0.24,0.16 -0.47,0.22 -0.7,0.19 -0.22,-0.02 -0.44,-0.14 -0.64,-0.34 -0.29,-0.3 -0.4,-0.66 -0.3,-1.11 0.1,-0.44 0.43,-0.94 1.01,-1.52 l 0.16,-0.16 c 0.36,-0.36 0.69,-0.6 1,-0.73 0.3,-0.12 0.57,-0.16 0.81,-0.11 0.24,0.05 0.45,0.17 0.62,0.34 0.27,0.27 0.39,0.56 0.35,0.85 -0.04,0.3 -0.19,0.58 -0.44,0.83 -0.25,0.25 -0.52,0.39 -0.79,0.41 -0.28,0.02 -0.53,-0.08 -0.76,-0.31 -0.26,-0.27 -0.44,-0.57 -0.51,-0.9 -0.08,-0.33 -0.08,-0.63 -0.02,-0.9 l -0.45,0.33 c -0.04,0.21 -0.04,0.44 -0.02,0.67 0.02,0.22 0.09,0.45 0.19,0.68 0.1,0.22 0.25,0.43 0.44,0.62 0.23,0.23 0.48,0.38 0.75,0.47 0.28,0.08 0.56,0.08 0.84,0 0.29,-0.08 0.57,-0.25 0.84,-0.52 0.26,-0.27 0.44,-0.55 0.54,-0.85 0.1,-0.31 0.11,-0.61 0.02,-0.92 -0.08,-0.32 -0.26,-0.61 -0.55,-0.9 z" /></g></g><g
       id="g630"><g
         clip-path="url(#clipPath636)"
         id="g632"><path
           id="path638"
           style="fill:#595959;fill-opacity:1;fill-rule:nonzero;stroke:none"
           d="m 383.47,332.85 c -0.19,-0.19 -0.39,-0.34 -0.6,-0.46 -0.21,-0.11 -0.43,-0.19 -0.65,-0.22 -0.23,-0.03 -0.45,0 -0.67,0.07 -0.23,0.08 -0.44,0.22 -0.64,0.42 -0.26,0.26 -0.4,0.55 -0.43,0.88 -0.02,0.33 0.05,0.64 0.23,0.93 -0.27,-0.13 -0.54,-0.17 -0.81,-0.13 -0.28,0.05 -0.53,0.19 -0.76,0.42 -0.25,0.24 -0.39,0.5 -0.42,0.77 -0.04,0.27 0,0.54 0.11,0.79 0.11,0.26 0.26,0.49 0.46,0.69 0.2,0.2 0.43,0.35 0.69,0.46 0.26,0.12 0.53,0.15 0.8,0.12 0.27,-0.04 0.53,-0.18 0.77,-0.42 0.24,-0.24 0.37,-0.5 0.4,-0.79 0.03,-0.29 -0.01,-0.56 -0.14,-0.8 0.3,0.18 0.61,0.26 0.94,0.24 0.33,-0.01 0.63,-0.15 0.9,-0.42 0.27,-0.27 0.43,-0.56 0.48,-0.86 0.05,-0.3 0.01,-0.59 -0.11,-0.89 -0.12,-0.29 -0.31,-0.56 -0.55,-0.8 z m -0.43,0.42 c 0.23,0.24 0.37,0.51 0.42,0.81 0.04,0.29 -0.07,0.58 -0.33,0.84 -0.17,0.17 -0.36,0.27 -0.55,0.31 -0.2,0.03 -0.39,0.01 -0.58,-0.06 -0.19,-0.07 -0.36,-0.19 -0.51,-0.35 -0.15,-0.13 -0.26,-0.3 -0.33,-0.48 -0.07,-0.19 -0.09,-0.38 -0.06,-0.58 0.03,-0.2 0.13,-0.38 0.31,-0.56 0.26,-0.26 0.53,-0.37 0.83,-0.33 0.3,0.04 0.56,0.17 0.8,0.4 z m -1.97,1.98 c 0.12,0.11 0.22,0.25 0.27,0.41 0.05,0.16 0.06,0.33 0.03,0.5 -0.04,0.17 -0.13,0.33 -0.28,0.48 -0.23,0.23 -0.47,0.33 -0.71,0.29 -0.24,-0.03 -0.46,-0.14 -0.66,-0.34 -0.12,-0.12 -0.21,-0.26 -0.27,-0.41 -0.06,-0.16 -0.08,-0.32 -0.05,-0.48 0.03,-0.16 0.12,-0.32 0.27,-0.47 0.15,-0.15 0.31,-0.25 0.48,-0.28 0.17,-0.04 0.34,-0.03 0.5,0.03 0.17,0.05 0.3,0.14 0.42,0.27 z" /></g></g><g
       id="g640"><g
         clip-path="url(#clipPath646)"
         id="g642"><path
           id="path648"
           style="fill:#595959;fill-opacity:1;fill-rule:nonzero;stroke:none"
           d="m 398.77,329.64 -3.43,3.43 c 0.02,-0.13 0.02,-0.28 -0.01,-0.45 -0.03,-0.17 -0.08,-0.35 -0.16,-0.54 -0.08,-0.19 -0.19,-0.39 -0.33,-0.58 l -0.47,0.47 c 0.14,0.19 0.24,0.4 0.31,0.62 0.06,0.22 0.1,0.43 0.1,0.64 0.01,0.21 0,0.39 -0.02,0.54 l 0.47,0.47 4.07,-4.07 z m -0.86,-0.86 -0.44,0.44 2.17,2.17 0.44,-0.44 z m 4.18,4.07 c -0.44,-0.44 -0.93,-0.6 -1.49,-0.49 -0.55,0.12 -1.18,0.54 -1.9,1.25 -0.72,0.72 -1.14,1.36 -1.25,1.91 -0.12,0.56 0.04,1.06 0.47,1.49 0.44,0.44 0.94,0.6 1.49,0.48 0.56,-0.12 1.19,-0.54 1.91,-1.25 0.71,-0.72 1.13,-1.35 1.25,-1.91 0.12,-0.55 -0.04,-1.05 -0.48,-1.48 z m -0.43,0.43 c 0.27,0.27 0.33,0.6 0.18,1 -0.15,0.39 -0.5,0.87 -1.06,1.42 -0.55,0.56 -1.03,0.91 -1.43,1.06 -0.39,0.15 -0.73,0.09 -1,-0.18 -0.27,-0.27 -0.33,-0.6 -0.18,-1 0.15,-0.4 0.51,-0.87 1.06,-1.43 0.56,-0.55 1.03,-0.91 1.43,-1.06 0.39,-0.14 0.73,-0.08 1,0.19 z" /></g></g><g
       id="g650"><g
         clip-path="url(#clipPath656)"
         id="g652"><path
           id="path658"
           style="fill:#595959;fill-opacity:1;fill-rule:nonzero;stroke:none"
           d="m 417.39,329.64 -3.43,3.43 c 0.02,-0.13 0.02,-0.28 -0.01,-0.45 -0.02,-0.17 -0.08,-0.35 -0.15,-0.54 -0.08,-0.19 -0.19,-0.39 -0.33,-0.58 l -0.47,0.47 c 0.13,0.19 0.23,0.4 0.3,0.62 0.06,0.22 0.1,0.43 0.11,0.64 0.01,0.21 0,0.39 -0.03,0.54 l 0.47,0.47 4.07,-4.07 z m -0.86,-0.86 -0.44,0.44 2.17,2.17 0.45,-0.44 z m 2.73,2.73 -0.4,0.4 0.11,2.7 c 0.03,0.5 0,0.9 -0.08,1.2 -0.08,0.3 -0.22,0.55 -0.42,0.76 -0.22,0.21 -0.45,0.32 -0.7,0.35 -0.25,0.02 -0.5,-0.09 -0.76,-0.35 -0.29,-0.29 -0.42,-0.57 -0.39,-0.84 0.03,-0.28 0.15,-0.53 0.38,-0.76 l -0.5,-0.51 c -0.25,0.25 -0.42,0.52 -0.51,0.8 -0.1,0.29 -0.1,0.58 0,0.88 0.09,0.3 0.28,0.59 0.57,0.88 0.27,0.27 0.55,0.45 0.83,0.54 0.28,0.09 0.56,0.09 0.83,0.02 0.27,-0.08 0.52,-0.24 0.75,-0.47 0.21,-0.21 0.37,-0.45 0.46,-0.7 0.09,-0.26 0.15,-0.53 0.17,-0.82 0.02,-0.29 0.02,-0.59 0,-0.91 l -0.1,-2.04 2.09,2.09 0.45,-0.45 z" /></g></g><g
       id="g660"><g
         clip-path="url(#clipPath666)"
         id="g662"><path
           id="path668"
           style="fill:#595959;fill-opacity:1;fill-rule:nonzero;stroke:none"
           d="m 436.01,329.64 -3.43,3.43 c 0.02,-0.13 0.02,-0.28 0,-0.45 -0.03,-0.17 -0.08,-0.35 -0.16,-0.54 -0.08,-0.19 -0.19,-0.39 -0.33,-0.58 l -0.47,0.47 c 0.14,0.19 0.24,0.4 0.3,0.62 0.07,0.22 0.1,0.43 0.11,0.64 0.01,0.21 0,0.39 -0.03,0.54 l 0.47,0.47 4.07,-4.07 z m -0.85,-0.86 -0.45,0.44 2.18,2.17 0.44,-0.44 z m 4.55,4.55 -0.83,0.82 -1.93,-1.93 -0.45,0.46 -0.88,4.72 0.51,0.51 2.81,-2.8 0.56,0.55 0.45,-0.44 -0.56,-0.56 0.82,-0.83 z m -2.71,-0.16 1.44,1.44 -2.1,2.1 z" /></g></g><g
       id="g670"><g
         clip-path="url(#clipPath676)"
         id="g672"><path
           id="path678"
           style="fill:#595959;fill-opacity:1;fill-rule:nonzero;stroke:none"
           d="m 454.64,329.64 -3.43,3.43 c 0.02,-0.13 0.01,-0.28 -0.01,-0.45 -0.03,-0.17 -0.08,-0.35 -0.16,-0.54 -0.08,-0.19 -0.19,-0.39 -0.33,-0.58 l -0.47,0.47 c 0.14,0.19 0.24,0.4 0.3,0.62 0.07,0.22 0.1,0.43 0.11,0.64 0.01,0.21 0,0.39 -0.02,0.54 l 0.46,0.47 4.07,-4.07 z m -0.86,-0.86 -0.44,0.44 2.17,2.17 0.44,-0.44 z m 4.25,4.14 c -0.28,-0.28 -0.6,-0.46 -0.96,-0.55 -0.37,-0.09 -0.76,-0.04 -1.19,0.13 -0.43,0.18 -0.89,0.51 -1.39,1 -0.48,0.48 -0.81,0.94 -1,1.37 -0.18,0.43 -0.24,0.84 -0.17,1.21 0.07,0.38 0.25,0.71 0.55,1.01 0.32,0.32 0.68,0.51 1.08,0.57 0.39,0.05 0.79,-0.06 1.2,-0.35 l -0.51,-0.51 c -0.24,0.16 -0.47,0.22 -0.7,0.19 -0.22,-0.02 -0.43,-0.14 -0.63,-0.34 -0.3,-0.3 -0.4,-0.66 -0.31,-1.11 0.1,-0.44 0.44,-0.94 1.01,-1.52 l 0.16,-0.16 c 0.36,-0.36 0.69,-0.6 1,-0.73 0.3,-0.12 0.57,-0.16 0.82,-0.11 0.24,0.05 0.44,0.17 0.62,0.34 0.27,0.27 0.38,0.56 0.34,0.85 -0.04,0.3 -0.18,0.58 -0.43,0.83 -0.26,0.25 -0.52,0.39 -0.8,0.41 -0.27,0.02 -0.53,-0.08 -0.76,-0.31 -0.26,-0.27 -0.43,-0.57 -0.51,-0.9 -0.08,-0.33 -0.08,-0.63 -0.02,-0.9 l -0.45,0.33 c -0.03,0.21 -0.04,0.44 -0.02,0.67 0.03,0.22 0.09,0.45 0.19,0.67 0.1,0.23 0.25,0.44 0.44,0.63 0.23,0.23 0.48,0.38 0.75,0.47 0.28,0.08 0.56,0.08 0.84,0 0.29,-0.08 0.57,-0.25 0.84,-0.52 0.26,-0.27 0.44,-0.55 0.54,-0.85 0.1,-0.31 0.11,-0.61 0.02,-0.92 -0.08,-0.32 -0.26,-0.61 -0.55,-0.9 z" /></g></g><g
       id="g680"><g
         clip-path="url(#clipPath686)"
         id="g682"><path
           id="path688"
           style="fill:#595959;fill-opacity:1;fill-rule:nonzero;stroke:none"
           d="m 471.91,328.29 -0.41,0.4 0.12,2.7 c 0.02,0.49 -0.01,0.89 -0.08,1.19 -0.08,0.3 -0.22,0.55 -0.43,0.76 -0.21,0.21 -0.44,0.33 -0.7,0.36 -0.25,0.02 -0.5,-0.1 -0.76,-0.35 -0.28,-0.29 -0.41,-0.57 -0.39,-0.85 0.03,-0.27 0.16,-0.53 0.39,-0.76 l -0.51,-0.5 c -0.25,0.25 -0.42,0.52 -0.51,0.8 -0.09,0.28 -0.09,0.57 0,0.87 0.09,0.3 0.28,0.6 0.57,0.89 0.27,0.27 0.55,0.45 0.83,0.53 0.28,0.09 0.56,0.1 0.83,0.02 0.27,-0.08 0.52,-0.23 0.75,-0.47 0.22,-0.21 0.37,-0.44 0.46,-0.7 0.1,-0.25 0.15,-0.52 0.17,-0.81 0.02,-0.29 0.02,-0.6 0,-0.92 l -0.09,-2.03 2.08,2.08 0.45,-0.44 z m 5.04,5.04 -0.82,0.82 -1.93,-1.93 -0.46,0.46 -0.88,4.72 0.52,0.51 2.8,-2.8 0.56,0.55 0.45,-0.44 -0.56,-0.56 0.83,-0.83 z m -2.7,-0.16 1.44,1.44 -2.11,2.1 z" /></g></g><g
       id="g690"><g
         clip-path="url(#clipPath696)"
         id="g692"><path
           id="path698"
           style="fill:#595959;fill-opacity:1;fill-rule:nonzero;stroke:none"
           d="m 492,329.64 c -0.43,-0.42 -0.88,-0.65 -1.35,-0.69 -0.48,-0.04 -0.92,0.15 -1.33,0.56 l 0.5,0.5 c 0.26,-0.25 0.54,-0.38 0.85,-0.37 0.31,0.01 0.6,0.15 0.88,0.43 0.27,0.26 0.41,0.53 0.43,0.8 0.02,0.28 -0.1,0.55 -0.37,0.82 -0.26,0.26 -0.53,0.37 -0.82,0.32 -0.28,-0.04 -0.57,-0.2 -0.86,-0.49 l -0.24,-0.24 -0.43,0.43 0.26,0.25 c 0.25,0.26 0.39,0.52 0.39,0.78 0,0.27 -0.1,0.51 -0.32,0.73 -0.2,0.2 -0.42,0.29 -0.66,0.26 -0.23,-0.03 -0.46,-0.16 -0.68,-0.38 -0.25,-0.24 -0.37,-0.5 -0.37,-0.77 0,-0.27 0.11,-0.52 0.32,-0.73 l -0.5,-0.51 c -0.24,0.24 -0.39,0.5 -0.46,0.78 -0.07,0.28 -0.05,0.57 0.04,0.85 0.1,0.29 0.28,0.56 0.53,0.82 0.23,0.23 0.47,0.39 0.74,0.5 0.26,0.11 0.53,0.15 0.79,0.11 0.26,-0.04 0.51,-0.18 0.74,-0.41 0.24,-0.24 0.37,-0.5 0.4,-0.79 0.02,-0.29 -0.04,-0.58 -0.2,-0.86 0.29,0.21 0.61,0.3 0.94,0.3 0.34,-0.01 0.65,-0.16 0.93,-0.44 0.39,-0.39 0.56,-0.81 0.52,-1.27 -0.05,-0.45 -0.27,-0.89 -0.67,-1.29 z m 1.75,1.87 -0.4,0.4 0.11,2.7 c 0.03,0.5 0,0.9 -0.08,1.2 -0.08,0.3 -0.22,0.55 -0.43,0.76 -0.21,0.21 -0.44,0.32 -0.69,0.35 -0.25,0.02 -0.5,-0.09 -0.76,-0.35 -0.29,-0.29 -0.42,-0.57 -0.39,-0.84 0.03,-0.28 0.15,-0.53 0.38,-0.76 l -0.5,-0.51 c -0.25,0.25 -0.42,0.52 -0.51,0.8 -0.1,0.29 -0.1,0.58 0,0.88 0.09,0.3 0.28,0.59 0.57,0.88 0.27,0.27 0.55,0.45 0.83,0.54 0.28,0.09 0.56,0.09 0.83,0.02 0.27,-0.08 0.52,-0.24 0.75,-0.47 0.21,-0.21 0.37,-0.45 0.46,-0.7 0.09,-0.26 0.15,-0.53 0.17,-0.82 0.01,-0.29 0.02,-0.59 0,-0.91 l -0.1,-2.04 2.09,2.09 0.45,-0.45 z" /></g></g><g
       id="g700"><g
         clip-path="url(#clipPath706)"
         id="g702"><path
           id="path708"
           style="fill:#595959;fill-opacity:1;fill-rule:nonzero;stroke:none"
           d="m 510.97,330.11 -0.82,0.82 -1.93,-1.93 -0.46,0.46 -0.88,4.72 0.52,0.51 2.8,-2.81 0.56,0.56 0.45,-0.45 -0.56,-0.56 0.83,-0.82 z m -2.7,-0.17 1.44,1.44 -2.11,2.11 z m 5.55,2.91 c -0.18,-0.19 -0.38,-0.34 -0.59,-0.46 -0.21,-0.11 -0.43,-0.19 -0.66,-0.22 -0.22,-0.03 -0.45,0 -0.67,0.07 -0.22,0.08 -0.43,0.22 -0.64,0.42 -0.26,0.26 -0.4,0.55 -0.42,0.88 -0.02,0.33 0.05,0.64 0.22,0.93 -0.26,-0.13 -0.53,-0.17 -0.81,-0.13 -0.27,0.05 -0.52,0.19 -0.75,0.42 -0.25,0.24 -0.39,0.5 -0.42,0.77 -0.04,0.27 0,0.54 0.11,0.79 0.11,0.26 0.26,0.49 0.46,0.69 0.2,0.2 0.43,0.35 0.69,0.46 0.26,0.12 0.52,0.15 0.79,0.12 0.28,-0.04 0.53,-0.18 0.78,-0.42 0.23,-0.24 0.37,-0.5 0.4,-0.79 0.03,-0.29 -0.02,-0.56 -0.14,-0.8 0.3,0.18 0.61,0.26 0.94,0.24 0.33,-0.01 0.63,-0.15 0.89,-0.42 0.28,-0.27 0.44,-0.56 0.49,-0.86 0.05,-0.3 0.01,-0.59 -0.11,-0.89 -0.13,-0.29 -0.31,-0.56 -0.56,-0.8 z m -0.43,0.42 c 0.24,0.24 0.38,0.51 0.42,0.81 0.05,0.29 -0.06,0.58 -0.33,0.84 -0.17,0.17 -0.35,0.27 -0.55,0.31 -0.19,0.03 -0.39,0.01 -0.58,-0.06 -0.19,-0.07 -0.36,-0.19 -0.5,-0.35 -0.15,-0.13 -0.26,-0.3 -0.34,-0.48 -0.07,-0.19 -0.09,-0.38 -0.06,-0.58 0.04,-0.2 0.14,-0.38 0.32,-0.56 0.25,-0.26 0.53,-0.37 0.83,-0.33 0.3,0.04 0.56,0.17 0.79,0.4 z m -1.97,1.98 c 0.13,0.11 0.22,0.25 0.28,0.41 0.05,0.16 0.06,0.33 0.02,0.5 -0.03,0.17 -0.13,0.33 -0.28,0.48 -0.22,0.23 -0.46,0.33 -0.7,0.29 -0.25,-0.03 -0.47,-0.14 -0.66,-0.34 -0.12,-0.12 -0.21,-0.26 -0.27,-0.41 -0.07,-0.16 -0.08,-0.32 -0.06,-0.48 0.03,-0.16 0.12,-0.32 0.28,-0.47 0.15,-0.15 0.31,-0.25 0.48,-0.28 0.17,-0.04 0.34,-0.03 0.5,0.03 0.16,0.05 0.3,0.14 0.41,0.27 z" /></g></g><g
       id="g710"><g
         clip-path="url(#clipPath716)"
         id="g712"><path
           id="path718"
           style="fill:#595959;fill-opacity:1;fill-rule:nonzero;stroke:none"
           d="m 529.3,329.7 c -0.28,-0.28 -0.61,-0.47 -0.97,-0.56 -0.36,-0.08 -0.76,-0.04 -1.19,0.14 -0.43,0.17 -0.89,0.5 -1.38,0.99 -0.48,0.48 -0.81,0.94 -1,1.38 -0.19,0.43 -0.25,0.83 -0.18,1.21 0.08,0.37 0.26,0.71 0.56,1 0.32,0.33 0.68,0.52 1.07,0.57 0.39,0.06 0.8,-0.06 1.2,-0.34 l -0.51,-0.51 c -0.23,0.15 -0.47,0.21 -0.69,0.19 -0.23,-0.03 -0.44,-0.14 -0.64,-0.34 -0.3,-0.3 -0.4,-0.67 -0.3,-1.11 0.09,-0.44 0.43,-0.95 1.01,-1.53 l 0.16,-0.16 c 0.36,-0.36 0.69,-0.6 0.99,-0.72 0.31,-0.13 0.58,-0.17 0.82,-0.11 0.24,0.05 0.45,0.16 0.62,0.33 0.27,0.28 0.39,0.56 0.35,0.86 -0.04,0.3 -0.19,0.57 -0.44,0.83 -0.25,0.25 -0.52,0.39 -0.79,0.41 -0.28,0.02 -0.53,-0.09 -0.76,-0.32 -0.27,-0.27 -0.44,-0.56 -0.51,-0.89 -0.08,-0.34 -0.09,-0.63 -0.02,-0.9 l -0.45,0.33 c -0.04,0.21 -0.05,0.43 -0.02,0.66 0.02,0.23 0.08,0.46 0.19,0.68 0.1,0.22 0.25,0.43 0.44,0.63 0.23,0.22 0.48,0.38 0.75,0.46 0.27,0.08 0.55,0.09 0.84,0.01 0.29,-0.08 0.56,-0.26 0.83,-0.53 0.27,-0.26 0.45,-0.54 0.55,-0.85 0.09,-0.3 0.1,-0.61 0.02,-0.92 -0.08,-0.31 -0.27,-0.61 -0.55,-0.89 z m 3.52,3.63 -0.82,0.82 -1.93,-1.93 -0.46,0.46 -0.88,4.72 0.51,0.51 2.81,-2.8 0.56,0.55 0.45,-0.44 -0.56,-0.56 0.82,-0.83 z m -2.71,-0.16 1.44,1.44 -2.1,2.1 z" /></g></g><g
       id="g720"><g
         clip-path="url(#clipPath726)"
         id="g722"><path
           id="path728"
           style="fill:#595959;fill-opacity:1;fill-rule:nonzero;stroke:none"
           d="m 544.52,326.41 -3.43,3.43 c 0.02,-0.13 0.02,-0.27 0,-0.45 -0.03,-0.17 -0.08,-0.35 -0.16,-0.54 -0.08,-0.19 -0.19,-0.38 -0.33,-0.58 l -0.47,0.47 c 0.14,0.2 0.24,0.41 0.3,0.62 0.07,0.22 0.1,0.44 0.11,0.64 0.01,0.21 0,0.39 -0.03,0.55 l 0.47,0.46 4.07,-4.07 z m -0.85,-0.85 -0.45,0.44 2.18,2.17 0.44,-0.44 z m 2.73,2.73 -0.41,0.4 0.12,2.7 c 0.02,0.49 -0.01,0.89 -0.09,1.19 -0.07,0.3 -0.22,0.55 -0.42,0.76 -0.21,0.21 -0.44,0.33 -0.7,0.36 -0.25,0.02 -0.5,-0.1 -0.76,-0.35 -0.28,-0.29 -0.42,-0.57 -0.39,-0.85 0.03,-0.27 0.16,-0.53 0.39,-0.76 l -0.51,-0.5 c -0.25,0.25 -0.42,0.52 -0.51,0.8 -0.09,0.28 -0.09,0.57 0,0.87 0.09,0.3 0.28,0.6 0.57,0.89 0.27,0.27 0.55,0.45 0.83,0.53 0.28,0.09 0.56,0.1 0.83,0.02 0.27,-0.08 0.52,-0.23 0.75,-0.47 0.22,-0.21 0.37,-0.44 0.46,-0.7 0.1,-0.25 0.15,-0.52 0.17,-0.81 0.02,-0.29 0.02,-0.6 0,-0.92 l -0.09,-2.03 2.08,2.08 0.45,-0.44 z m 4.67,4.56 c -0.19,-0.19 -0.38,-0.34 -0.6,-0.46 -0.21,-0.11 -0.43,-0.19 -0.65,-0.22 -0.23,-0.03 -0.45,0 -0.67,0.07 -0.23,0.08 -0.44,0.22 -0.64,0.42 -0.26,0.26 -0.4,0.55 -0.43,0.88 -0.02,0.33 0.06,0.64 0.23,0.93 -0.27,-0.13 -0.54,-0.17 -0.81,-0.13 -0.28,0.05 -0.53,0.19 -0.76,0.42 -0.24,0.24 -0.38,0.5 -0.42,0.77 -0.03,0.27 0,0.54 0.11,0.79 0.11,0.26 0.27,0.49 0.47,0.69 0.2,0.2 0.43,0.35 0.68,0.46 0.26,0.12 0.53,0.15 0.8,0.12 0.27,-0.04 0.53,-0.18 0.77,-0.42 0.24,-0.24 0.37,-0.5 0.4,-0.79 0.04,-0.29 -0.01,-0.56 -0.13,-0.8 0.29,0.18 0.6,0.26 0.94,0.24 0.33,-0.01 0.62,-0.15 0.89,-0.42 0.27,-0.27 0.43,-0.56 0.48,-0.86 0.05,-0.3 0.01,-0.59 -0.11,-0.89 -0.12,-0.29 -0.31,-0.56 -0.55,-0.8 z m -0.43,0.42 c 0.23,0.24 0.37,0.51 0.42,0.81 0.04,0.29 -0.07,0.58 -0.33,0.84 -0.17,0.17 -0.36,0.27 -0.55,0.31 -0.2,0.03 -0.39,0.01 -0.58,-0.06 -0.19,-0.07 -0.36,-0.19 -0.51,-0.35 -0.15,-0.13 -0.26,-0.3 -0.33,-0.48 -0.07,-0.19 -0.09,-0.38 -0.06,-0.58 0.03,-0.2 0.14,-0.38 0.31,-0.56 0.26,-0.26 0.54,-0.37 0.83,-0.33 0.3,0.04 0.57,0.17 0.8,0.4 z m -1.97,1.98 c 0.12,0.11 0.22,0.25 0.27,0.41 0.06,0.16 0.07,0.33 0.03,0.5 -0.04,0.17 -0.13,0.33 -0.28,0.48 -0.23,0.23 -0.47,0.33 -0.71,0.29 -0.24,-0.03 -0.46,-0.14 -0.66,-0.34 -0.12,-0.12 -0.21,-0.26 -0.27,-0.41 -0.06,-0.16 -0.08,-0.32 -0.05,-0.48 0.03,-0.16 0.12,-0.32 0.27,-0.47 0.15,-0.15 0.31,-0.25 0.48,-0.28 0.17,-0.04 0.34,-0.03 0.5,0.03 0.17,0.05 0.3,0.14 0.42,0.27 z" /></g></g><g
       id="g730"><g
         clip-path="url(#clipPath736)"
         id="g732"><path
           id="path738"
           style="fill:#595959;fill-opacity:1;fill-rule:nonzero;stroke:none"
           d="m 561.79,325.06 -0.4,0.41 0.12,2.7 c 0.02,0.49 -0.01,0.89 -0.09,1.19 -0.07,0.3 -0.22,0.55 -0.42,0.76 -0.22,0.21 -0.45,0.33 -0.7,0.35 -0.25,0.03 -0.5,-0.09 -0.76,-0.35 -0.29,-0.28 -0.42,-0.57 -0.39,-0.84 0.03,-0.28 0.15,-0.53 0.38,-0.76 l -0.5,-0.51 c -0.25,0.25 -0.42,0.52 -0.51,0.8 -0.1,0.29 -0.09,0.58 0,0.88 0.09,0.3 0.28,0.59 0.57,0.88 0.27,0.27 0.55,0.45 0.83,0.54 0.28,0.09 0.56,0.09 0.83,0.02 0.27,-0.08 0.52,-0.24 0.75,-0.47 0.21,-0.21 0.37,-0.44 0.46,-0.7 0.09,-0.26 0.15,-0.53 0.17,-0.82 0.02,-0.29 0.02,-0.59 0,-0.91 l -0.1,-2.03 2.09,2.08 0.45,-0.45 z m 4.68,4.56 c -0.26,-0.25 -0.53,-0.43 -0.83,-0.54 -0.29,-0.11 -0.58,-0.14 -0.87,-0.09 -0.29,0.06 -0.56,0.21 -0.8,0.45 l 0.52,0.51 c 0.22,-0.22 0.47,-0.32 0.75,-0.3 0.29,0.03 0.55,0.16 0.79,0.4 0.26,0.26 0.38,0.53 0.36,0.83 -0.01,0.3 -0.17,0.61 -0.48,0.91 -0.3,0.31 -0.6,0.46 -0.89,0.47 -0.29,0 -0.55,-0.12 -0.8,-0.36 -0.17,-0.18 -0.29,-0.35 -0.35,-0.53 -0.07,-0.17 -0.09,-0.35 -0.07,-0.53 l -0.45,-0.45 -2,2.34 2.06,2.06 0.45,-0.45 -1.65,-1.65 1.19,-1.42 c -0.02,0.16 0.01,0.34 0.07,0.53 0.07,0.2 0.2,0.4 0.4,0.6 0.23,0.22 0.49,0.39 0.77,0.48 0.28,0.09 0.58,0.1 0.88,0.02 0.31,-0.09 0.61,-0.28 0.92,-0.58 0.29,-0.3 0.48,-0.6 0.57,-0.92 0.09,-0.32 0.08,-0.63 -0.01,-0.93 -0.1,-0.31 -0.27,-0.59 -0.53,-0.85 z m 3.3,3.3 c -0.29,-0.28 -0.61,-0.46 -0.97,-0.55 -0.36,-0.09 -0.76,-0.04 -1.19,0.13 -0.43,0.18 -0.89,0.51 -1.38,1 -0.48,0.48 -0.82,0.94 -1,1.37 -0.19,0.43 -0.25,0.84 -0.18,1.21 0.07,0.38 0.26,0.71 0.55,1.01 0.33,0.32 0.69,0.51 1.08,0.57 0.39,0.05 0.79,-0.06 1.2,-0.35 l -0.51,-0.51 c -0.24,0.16 -0.47,0.22 -0.69,0.19 -0.23,-0.02 -0.44,-0.14 -0.64,-0.34 -0.3,-0.3 -0.4,-0.66 -0.3,-1.11 0.09,-0.44 0.43,-0.94 1.01,-1.52 l 0.16,-0.16 c 0.36,-0.36 0.69,-0.6 0.99,-0.73 0.31,-0.12 0.58,-0.16 0.82,-0.11 0.24,0.05 0.45,0.17 0.62,0.34 0.27,0.27 0.39,0.56 0.35,0.85 -0.04,0.3 -0.19,0.58 -0.44,0.83 -0.26,0.25 -0.52,0.39 -0.79,0.41 -0.28,0.02 -0.53,-0.08 -0.76,-0.31 -0.27,-0.27 -0.44,-0.57 -0.52,-0.9 -0.07,-0.33 -0.08,-0.63 -0.02,-0.9 l -0.44,0.33 c -0.04,0.21 -0.05,0.44 -0.02,0.67 0.02,0.22 0.08,0.45 0.18,0.68 0.11,0.22 0.25,0.43 0.45,0.62 0.23,0.23 0.47,0.38 0.75,0.47 0.27,0.08 0.55,0.08 0.84,0 0.29,-0.08 0.56,-0.25 0.83,-0.52 0.27,-0.27 0.45,-0.55 0.55,-0.85 0.09,-0.31 0.1,-0.61 0.02,-0.92 -0.08,-0.32 -0.27,-0.61 -0.55,-0.9 z" /></g></g><g
       id="g740"><g
         clip-path="url(#clipPath746)"
         id="g742"><path
           id="path748"
           style="fill:#595959;fill-opacity:1;fill-rule:nonzero;stroke:none"
           d="m 581.86,326.4 c -0.25,-0.26 -0.52,-0.44 -0.82,-0.55 -0.29,-0.11 -0.59,-0.14 -0.88,-0.08 -0.29,0.06 -0.55,0.2 -0.79,0.44 l 0.52,0.52 c 0.22,-0.22 0.47,-0.32 0.75,-0.3 0.28,0.02 0.55,0.15 0.79,0.4 0.26,0.25 0.37,0.53 0.36,0.83 -0.01,0.3 -0.18,0.6 -0.48,0.91 -0.31,0.3 -0.6,0.46 -0.89,0.46 -0.29,0 -0.56,-0.12 -0.8,-0.36 -0.17,-0.17 -0.29,-0.35 -0.35,-0.52 -0.07,-0.18 -0.09,-0.35 -0.07,-0.53 l -0.46,-0.46 -1.99,2.35 2.06,2.05 0.45,-0.45 -1.65,-1.65 1.19,-1.41 c -0.02,0.15 0.01,0.33 0.07,0.53 0.07,0.19 0.2,0.39 0.4,0.59 0.23,0.23 0.48,0.39 0.77,0.49 0.28,0.09 0.57,0.1 0.88,0.01 0.31,-0.08 0.61,-0.27 0.91,-0.58 0.3,-0.29 0.49,-0.6 0.58,-0.92 0.09,-0.31 0.08,-0.62 -0.01,-0.93 -0.1,-0.3 -0.28,-0.58 -0.54,-0.84 z m 3.13,3.24 -3.43,3.43 c 0.02,-0.13 0.02,-0.28 -0.01,-0.45 -0.02,-0.17 -0.07,-0.35 -0.15,-0.54 -0.08,-0.19 -0.19,-0.39 -0.33,-0.58 l -0.47,0.47 c 0.14,0.19 0.24,0.4 0.3,0.62 0.06,0.22 0.1,0.43 0.11,0.64 0.01,0.21 0,0.39 -0.03,0.54 l 0.47,0.47 4.07,-4.07 z m -0.86,-0.86 -0.44,0.44 2.18,2.17 0.44,-0.44 z m 2.74,2.73 -0.41,0.4 0.12,2.7 c 0.02,0.5 -0.01,0.9 -0.09,1.2 -0.07,0.3 -0.22,0.55 -0.42,0.76 -0.21,0.21 -0.45,0.32 -0.7,0.35 -0.25,0.02 -0.5,-0.09 -0.76,-0.35 -0.29,-0.29 -0.42,-0.57 -0.39,-0.84 0.03,-0.28 0.16,-0.53 0.39,-0.76 l -0.51,-0.51 c -0.25,0.25 -0.42,0.52 -0.51,0.8 -0.09,0.29 -0.09,0.58 0,0.88 0.09,0.3 0.28,0.59 0.57,0.88 0.27,0.27 0.55,0.45 0.83,0.54 0.28,0.09 0.56,0.09 0.83,0.02 0.27,-0.08 0.52,-0.24 0.75,-0.47 0.21,-0.21 0.37,-0.45 0.46,-0.7 0.1,-0.26 0.15,-0.53 0.17,-0.82 0.02,-0.29 0.02,-0.59 0,-0.91 l -0.1,-2.04 2.09,2.09 0.45,-0.45 z" /></g></g><g
       id="g750"><g
         clip-path="url(#clipPath756)"
         id="g752"><path
           id="path758"
           style="fill:#595959;fill-opacity:1;fill-rule:nonzero;stroke:none"
           d="m 597.17,323.19 -3.43,3.43 c 0.02,-0.13 0.01,-0.28 -0.01,-0.45 -0.03,-0.17 -0.08,-0.35 -0.16,-0.54 -0.08,-0.19 -0.19,-0.39 -0.33,-0.58 l -0.47,0.47 c 0.14,0.19 0.24,0.4 0.3,0.62 0.07,0.22 0.1,0.43 0.11,0.64 0.01,0.21 0,0.39 -0.02,0.54 l 0.46,0.47 4.07,-4.07 z m -0.86,-0.86 -0.44,0.44 2.17,2.17 0.44,-0.44 z m 4.18,4.07 c -0.44,-0.44 -0.94,-0.6 -1.49,-0.48 -0.55,0.11 -1.19,0.53 -1.9,1.24 -0.72,0.72 -1.14,1.36 -1.26,1.91 -0.12,0.56 0.04,1.06 0.48,1.49 0.44,0.44 0.93,0.6 1.49,0.48 0.55,-0.12 1.19,-0.54 1.9,-1.25 0.72,-0.72 1.13,-1.35 1.25,-1.91 0.12,-0.55 -0.04,-1.05 -0.47,-1.48 z m -0.44,0.43 c 0.27,0.27 0.33,0.6 0.19,1 -0.15,0.39 -0.51,0.87 -1.06,1.42 -0.56,0.56 -1.03,0.91 -1.43,1.06 -0.4,0.15 -0.73,0.09 -1,-0.18 -0.27,-0.27 -0.33,-0.6 -0.18,-1 0.15,-0.4 0.5,-0.87 1.06,-1.43 0.55,-0.55 1.03,-0.91 1.42,-1.05 0.4,-0.15 0.73,-0.09 1,0.18 z m 2.21,1.46 -0.4,0.4 0.11,2.7 c 0.03,0.49 0,0.89 -0.08,1.19 -0.08,0.3 -0.22,0.55 -0.43,0.76 -0.21,0.21 -0.44,0.33 -0.69,0.36 -0.25,0.02 -0.5,-0.1 -0.76,-0.35 -0.29,-0.29 -0.42,-0.57 -0.39,-0.85 0.03,-0.27 0.15,-0.53 0.38,-0.76 l -0.5,-0.5 c -0.25,0.25 -0.42,0.52 -0.52,0.8 -0.09,0.28 -0.09,0.57 0.01,0.87 0.09,0.3 0.28,0.6 0.57,0.89 0.27,0.27 0.55,0.45 0.83,0.53 0.28,0.09 0.56,0.1 0.83,0.02 0.27,-0.08 0.52,-0.23 0.75,-0.47 0.21,-0.21 0.37,-0.44 0.46,-0.7 0.09,-0.25 0.15,-0.52 0.17,-0.81 0.01,-0.29 0.02,-0.6 0,-0.92 l -0.1,-2.03 2.09,2.08 0.44,-0.44 z m 5.05,5.04 -0.82,0.82 -1.93,-1.93 -0.46,0.46 -0.88,4.72 0.51,0.51 2.81,-2.8 0.56,0.55 0.45,-0.44 -0.56,-0.56 0.82,-0.83 z m -2.71,-0.16 1.44,1.44 -2.1,2.1 z" /></g></g><g
       id="g760"><g
         clip-path="url(#clipPath766)"
         id="g762"><text
           id="text770"
           style="font-variant:normal;font-weight:normal;font-size:9.96000004px;font-family:Aptos;-inkscape-font-specification:Aptos-Narrow;writing-mode:lr-tb;fill:#595959;fill-opacity:1;fill-rule:nonzero;stroke:none"
           transform="matrix(-4.4e-8,1,1,4.4e-8,260.09,391.56)"><tspan
             id="tspan768"
             y="0"
             x="0 2.9879999 5.2588801 13.06752 17.85828 20.497681 24.90996 29.740561 34.521358">time[sec]</tspan></text>
</g></g><g
       id="g772"><g
         clip-path="url(#clipPath778)"
         id="g774"><text
           id="text782"
           style="font-variant:normal;font-weight:normal;font-size:9.96000004px;font-family:Aptos;-inkscape-font-specification:Aptos-Narrow;writing-mode:lr-tb;fill:#595959;fill-opacity:1;fill-rule:nonzero;stroke:none"
           transform="matrix(1,0,0,-1,439.51,307.37)"><tspan
             id="tspan780"
             y="0"
             x="0 5.0497198 10.18908 15.46788 20.24868 23.256599 28.2864 31.403879">nbActors</tspan></text>
</g></g><g
       id="g784"><g
         clip-path="url(#clipPath790)"
         id="g786"><text
           id="text794"
           style="font-variant:normal;font-weight:normal;font-size:14.06400013px;font-family:Aptos;-inkscape-font-specification:Aptos-Narrow;writing-mode:lr-tb;fill:#595959;fill-opacity:1;fill-rule:nonzero;stroke:none"
           transform="matrix(1,0,0,-1,400.68,490.85)"><tspan
             id="tspan792"
             y="0"
             x="0 4.7676959 8.9868956 12.137232 23.163408 29.984447 33.795792 40.026142 46.889378 53.640095 57.451439">&quot;time[sec]&quot;</tspan></text>
</g></g><path
       id="path796"
       style="fill:none;stroke:#d9d9d9;stroke-width:0.75;stroke-linecap:butt;stroke-linejoin:round;stroke-miterlimit:10;stroke-dasharray:none;stroke-opacity:1"
       d="m 238.2,292.08 h 387 v 219.48 h -387 z" /></g></svg>